<svg xmlns="http://www.w3.org/2000/svg" width="512" height="512" viewBox="0 0 682.667 682.667" xml:space="preserve"><defs><clipPath id="a" clipPathUnits="userSpaceOnUse"><path d="M0 512h512V0H0Z" fill="#ffdb6e" data-original="#000000"/></clipPath></defs><g clip-path="url(#a)" transform="matrix(1.33333 0 0 -1.33333 0 682.667)"><path d="M356 156.124H156v200h200z" style="fill-opacity:1;fill-rule:nonzero;stroke:none" fill="#ed9b2a" data-original="#ffffff"/><path d="M0 0c0-11.046 8.954-20 20-20s20 8.954 20 20-8.954 20-20 20S0 11.046 0 0" style="fill-opacity:1;fill-rule:nonzero;stroke:none" transform="translate(236 468)" fill="#ffbc5e" data-original="#ffce62"/><path d="M0 0c0-11.046-8.954-20-20-20s-20 8.954-20 20 8.954 20 20 20S0 11.046 0 0" style="fill-opacity:1;fill-rule:nonzero;stroke:none" transform="translate(424 482)" fill="#ffbc5e" data-original="#ffce62"/><path d="M0 0c0-11.046 8.954-20 20-20s20 8.954 20 20-8.954 20-20 20S0 11.046 0 0" style="fill-opacity:1;fill-rule:nonzero;stroke:none" transform="translate(88 482)" fill="#ffbc5e" data-original="#ffce62"/><path d="M0 0c0 11.046 8.954 20 20 20s20-8.954 20-20-8.954-20-20-20S0-11.046 0 0" style="fill-opacity:1;fill-rule:nonzero;stroke:none" transform="translate(236 44)" fill="#ffbc5e" data-original="#ffce62"/><path d="M0 0c0 11.046-8.954 20-20 20s-20-8.954-20-20 8.954-20 20-20S0-11.046 0 0" style="fill-opacity:1;fill-rule:nonzero;stroke:none" transform="translate(424 30)" fill="#ffbc5e" data-original="#ffce62"/><path d="M0 0c-11.046 0-20-8.954-20-20s8.954-20 20-20 20 8.954 20 20S11.046 0 0 0" style="fill-opacity:1;fill-rule:nonzero;stroke:none" transform="translate(468.124 276)" fill="#ffbc5e" data-original="#ffce62"/><path d="M0 0c11.046 0 20-8.954 20-20S11.046-40 0-40s-20 8.954-20 20S-11.045 0 0 0" style="fill-opacity:1;fill-rule:nonzero;stroke:none" transform="translate(43.876 276)" fill="#ffbc5e" data-original="#ffce62"/><path d="M0 0c0 11.046 8.954 20 20 20s20-8.954 20-20-8.954-20-20-20S0-11.046 0 0" style="fill-opacity:1;fill-rule:nonzero;stroke:none" transform="translate(88 30)" fill="#ffbc5e" data-original="#ffce62"/><path d="M0 0h-230.223c-18.164 0-32.888 14.725-32.888 32.889v230.222c0 18.164 14.724 32.889 32.888 32.889H0c18.164 0 32.889-14.725 32.889-32.889V32.889C32.889 14.725 18.164 0 0 0" style="stroke-width:20;stroke-linecap:round;stroke-linejoin:round;stroke-miterlimit:10;stroke-dasharray:none;stroke-opacity:1" transform="translate(371.111 108.124)" fill="none" stroke="#ffdb6e" stroke-width="20" stroke-linecap="round" stroke-linejoin="round" stroke-miterlimit="10" data-original="#000000"/><path d="M0 0h55v-200h-200V0h55" style="stroke-width:20;stroke-linecap:round;stroke-linejoin:round;stroke-miterlimit:10;stroke-dasharray:none;stroke-opacity:1" transform="translate(301 356.124)" fill="none" stroke="#ffdb6e" stroke-width="20" stroke-linecap="round" stroke-linejoin="round" stroke-miterlimit="10" data-original="#000000"/><path d="m0 0 30.04 78.873c.614 1.501 2.738 1.503 3.356.003L63.162 0" style="stroke-width:20;stroke-linecap:round;stroke-linejoin:round;stroke-miterlimit:10;stroke-dasharray:none;stroke-opacity:1" transform="translate(204.419 216.124)" fill="none" stroke="#ffdb6e" stroke-width="20" stroke-linecap="round" stroke-linejoin="round" stroke-miterlimit="10" data-original="#000000"/><path d="M0 0h44.575" style="stroke-width:20;stroke-linecap:round;stroke-linejoin:round;stroke-miterlimit:10;stroke-dasharray:none;stroke-opacity:1" transform="translate(213.788 235.768)" fill="none" stroke="#ffdb6e" stroke-width="20" stroke-linecap="round" stroke-linejoin="round" stroke-miterlimit="10" data-original="#000000"/><path d="M0 0v-80" style="stroke-width:20;stroke-linecap:round;stroke-linejoin:round;stroke-miterlimit:10;stroke-dasharray:none;stroke-opacity:1" transform="translate(307.581 296.124)" fill="none" stroke="#ffdb6e" stroke-width="20" stroke-linecap="round" stroke-linejoin="round" stroke-miterlimit="10" data-original="#000000"/><path d="M0 0v43.876" style="stroke-width:20;stroke-linecap:round;stroke-linejoin:round;stroke-miterlimit:10;stroke-dasharray:none;stroke-opacity:1" transform="translate(256 404.124)" fill="none" stroke="#ffdb6e" stroke-width="20" stroke-linecap="round" stroke-linejoin="round" stroke-miterlimit="10" data-original="#000000"/><path d="M0 0c0-11.046 8.954-20 20-20s20 8.954 20 20-8.954 20-20 20S0 11.046 0 0" style="stroke-width:20;stroke-linecap:round;stroke-linejoin:round;stroke-miterlimit:10;stroke-dasharray:none;stroke-opacity:1" transform="translate(236 468)" fill="none" stroke="#ffdb6e" stroke-width="20" stroke-linecap="round" stroke-linejoin="round" stroke-miterlimit="10" data-original="#000000"/><path d="M0 0h-53.534v-77.876" style="stroke-width:20;stroke-linecap:round;stroke-linejoin:round;stroke-miterlimit:10;stroke-dasharray:none;stroke-opacity:1" transform="translate(384 482)" fill="none" stroke="#ffdb6e" stroke-width="20" stroke-linecap="round" stroke-linejoin="round" stroke-miterlimit="10" data-original="#000000"/><path d="M0 0c0-11.046-8.954-20-20-20s-20 8.954-20 20 8.954 20 20 20S0 11.046 0 0" style="stroke-width:20;stroke-linecap:round;stroke-linejoin:round;stroke-miterlimit:10;stroke-dasharray:none;stroke-opacity:1" transform="translate(424 482)" fill="none" stroke="#ffdb6e" stroke-width="20" stroke-linecap="round" stroke-linejoin="round" stroke-miterlimit="10" data-original="#000000"/><path d="M0 0h53.534v-77.876" style="stroke-width:20;stroke-linecap:round;stroke-linejoin:round;stroke-miterlimit:10;stroke-dasharray:none;stroke-opacity:1" transform="translate(128 482)" fill="none" stroke="#ffdb6e" stroke-width="20" stroke-linecap="round" stroke-linejoin="round" stroke-miterlimit="10" data-original="#000000"/><path d="M0 0c0-11.046 8.954-20 20-20s20 8.954 20 20-8.954 20-20 20S0 11.046 0 0" style="stroke-width:20;stroke-linecap:round;stroke-linejoin:round;stroke-miterlimit:10;stroke-dasharray:none;stroke-opacity:1" transform="translate(88 482)" fill="none" stroke="#ffdb6e" stroke-width="20" stroke-linecap="round" stroke-linejoin="round" stroke-miterlimit="10" data-original="#000000"/><path d="M0 0v-43.876" style="stroke-width:20;stroke-linecap:round;stroke-linejoin:round;stroke-miterlimit:10;stroke-dasharray:none;stroke-opacity:1" transform="translate(256 107.876)" fill="none" stroke="#ffdb6e" stroke-width="20" stroke-linecap="round" stroke-linejoin="round" stroke-miterlimit="10" data-original="#000000"/><path d="M0 0c0 11.046 8.954 20 20 20s20-8.954 20-20-8.954-20-20-20S0-11.046 0 0" style="stroke-width:20;stroke-linecap:round;stroke-linejoin:round;stroke-miterlimit:10;stroke-dasharray:none;stroke-opacity:1" transform="translate(236 44)" fill="none" stroke="#ffdb6e" stroke-width="20" stroke-linecap="round" stroke-linejoin="round" stroke-miterlimit="10" data-original="#000000"/><path d="M0 0h44" style="stroke-width:20;stroke-linecap:round;stroke-linejoin:round;stroke-miterlimit:10;stroke-dasharray:none;stroke-opacity:1" transform="translate(404.124 256)" fill="none" stroke="#ffdb6e" stroke-width="20" stroke-linecap="round" stroke-linejoin="round" stroke-miterlimit="10" data-original="#000000"/><path d="M0 0c-11.046 0-20-8.954-20-20s8.954-20 20-20 20 8.954 20 20S11.046 0 0 0" style="stroke-width:20;stroke-linecap:round;stroke-linejoin:round;stroke-miterlimit:10;stroke-dasharray:none;stroke-opacity:1" transform="translate(468.124 276)" fill="none" stroke="#ffdb6e" stroke-width="20" stroke-linecap="round" stroke-linejoin="round" stroke-miterlimit="10" data-original="#000000"/><path d="M0 0h-44" style="stroke-width:20;stroke-linecap:round;stroke-linejoin:round;stroke-miterlimit:10;stroke-dasharray:none;stroke-opacity:1" transform="translate(107.876 256)" fill="none" stroke="#ffdb6e" stroke-width="20" stroke-linecap="round" stroke-linejoin="round" stroke-miterlimit="10" data-original="#000000"/><path d="M0 0c11.046 0 20-8.954 20-20S11.046-40 0-40s-20 8.954-20 20S-11.045 0 0 0" style="stroke-width:20;stroke-linecap:round;stroke-linejoin:round;stroke-miterlimit:10;stroke-dasharray:none;stroke-opacity:1" transform="translate(43.876 276)" fill="none" stroke="#ffdb6e" stroke-width="20" stroke-linecap="round" stroke-linejoin="round" stroke-miterlimit="10" data-original="#000000"/><path d="M0 0h-53.534v77.876" style="stroke-width:20;stroke-linecap:round;stroke-linejoin:round;stroke-miterlimit:10;stroke-dasharray:none;stroke-opacity:1" transform="translate(384 30)" fill="none" stroke="#ffdb6e" stroke-width="20" stroke-linecap="round" stroke-linejoin="round" stroke-miterlimit="10" data-original="#000000"/><path d="M0 0c0 11.046-8.954 20-20 20s-20-8.954-20-20 8.954-20 20-20S0-11.046 0 0" style="stroke-width:20;stroke-linecap:round;stroke-linejoin:round;stroke-miterlimit:10;stroke-dasharray:none;stroke-opacity:1" transform="translate(424 30)" fill="none" stroke="#ffdb6e" stroke-width="20" stroke-linecap="round" stroke-linejoin="round" stroke-miterlimit="10" data-original="#000000"/><path d="M0 0h53.534v77.876" style="stroke-width:20;stroke-linecap:round;stroke-linejoin:round;stroke-miterlimit:10;stroke-dasharray:none;stroke-opacity:1" transform="translate(128 30)" fill="none" stroke="#ffdb6e" stroke-width="20" stroke-linecap="round" stroke-linejoin="round" stroke-miterlimit="10" data-original="#000000"/><path d="M0 0h-84.856" style="stroke-width:20;stroke-linecap:round;stroke-linejoin:round;stroke-miterlimit:10;stroke-dasharray:none;stroke-opacity:1" transform="translate(502 181.534)" fill="none" stroke="#ffdb6e" stroke-width="20" stroke-linecap="round" stroke-linejoin="round" stroke-miterlimit="10" data-original="#000000"/><path d="M0 0h-84.856" style="stroke-width:20;stroke-linecap:round;stroke-linejoin:round;stroke-miterlimit:10;stroke-dasharray:none;stroke-opacity:1" transform="translate(502 330.466)" fill="none" stroke="#ffdb6e" stroke-width="20" stroke-linecap="round" stroke-linejoin="round" stroke-miterlimit="10" data-original="#000000"/><path d="M0 0h84.856" style="stroke-width:20;stroke-linecap:round;stroke-linejoin:round;stroke-miterlimit:10;stroke-dasharray:none;stroke-opacity:1" transform="translate(10 181.534)" fill="none" stroke="#ffdb6e" stroke-width="20" stroke-linecap="round" stroke-linejoin="round" stroke-miterlimit="10" data-original="#000000"/><path d="M0 0h84.856" style="stroke-width:20;stroke-linecap:round;stroke-linejoin:round;stroke-miterlimit:10;stroke-dasharray:none;stroke-opacity:1" transform="translate(10 330.466)" fill="none" stroke="#ffdb6e" stroke-width="20" stroke-linecap="round" stroke-linejoin="round" stroke-miterlimit="10" data-original="#000000"/><path d="M0 0c0 11.046 8.954 20 20 20s20-8.954 20-20-8.954-20-20-20S0-11.046 0 0" style="stroke-width:20;stroke-linecap:round;stroke-linejoin:round;stroke-miterlimit:10;stroke-dasharray:none;stroke-opacity:1" transform="translate(88 30)" fill="none" stroke="#ffdb6e" stroke-width="20" stroke-linecap="round" stroke-linejoin="round" stroke-miterlimit="10" data-original="#000000"/></g></svg>