<?xml version="1.0" encoding="UTF-8" standalone="no"?>
<!DOCTYPE svg PUBLIC "-//W3C//DTD SVG 1.1//EN" "http://www.w3.org/Graphics/SVG/1.1/DTD/svg11.dtd">
<svg width="100%" height="100%" viewBox="0 0 1229 1211" version="1.1" xmlns="http://www.w3.org/2000/svg" xmlns:xlink="http://www.w3.org/1999/xlink" xml:space="preserve" xmlns:serif="http://www.serif.com/" style="fill-rule:evenodd;clip-rule:evenodd;stroke-linejoin:round;stroke-miterlimit:2;">
    <g id="Artboard1" transform="matrix(0.350176,0,0,0.243982,0,0)">
        <rect x="0" y="0" width="3507.874" height="4960.63" style="fill:none;"/>
        <g transform="matrix(2.855709,0,0,4.098655,-3084.307583,-4182.055718)">
            <g transform="matrix(1,0,0,1,43.41908,-168.248936)">
                <path d="M1552.031,1339.702C1575.095,1339.478 2079.262,1339.005 2083.08,1339.962C2089.533,1341.58 2088.415,1344.619 2088.415,1469.616C2088.415,1920.784 2092.799,1923.552 2059.159,2003.929C1993.939,2159.76 1852.849,2208.491 1835.721,2213.784C1768.711,2234.49 1748.465,2233.766 1685.668,2233.767C1199.95,2233.769 1199.92,2233.856 1197.116,2232.886C1191.883,2231.076 1192.66,2228.746 1192.66,2071.04C1192.66,1662.183 1189.162,1660.281 1216.586,1582.689C1249.426,1489.777 1357.529,1348.131 1552.031,1339.702Z" style="fill:url(#_Linear1);"/>
            </g>
            <g transform="matrix(1,0,0,1,157.394166,65.12862)">
                <path d="M1380.303,1807.572C1380.444,1615.107 1379.78,1615.066 1379.574,1614.647C1376.03,1607.462 1164.786,1613.136 1147.25,1611.26C1138.53,1610.328 1139.916,1605.868 1139.952,1493.511C1140.001,1343.327 1247.175,1162.42 1488.156,1166.196C1497.425,1166.342 1496.742,1174.705 1496.738,1176.111C1496.15,1399.049 1498.692,1402.798 1491.878,1404.459C1489.885,1404.945 1388.571,1404.697 1387.731,1404.632C1376.896,1403.795 1380.434,1383.543 1380.558,1309.797C1380.579,1297.695 1366.294,1307.833 1361.696,1310.646C1245.628,1381.675 1257.484,1491.978 1258.322,1492.828C1263.63,1498.209 1483.199,1493.304 1491.965,1495.57C1497.296,1496.949 1496.663,1499.71 1496.663,1810.932C1496.663,1934.364 1498.268,1940.102 1488.127,1940.164C1460.554,1940.331 1150.287,1942.213 1143.46,1938.877C1139.949,1937.162 1139.964,1913.401 1139.966,1911.167C1140.097,1706.707 1138.462,1703.548 1144.398,1702.027C1147.099,1701.336 1249.872,1701.599 1250.703,1701.844C1264.766,1705.993 1248.274,1817.347 1260.486,1821.907C1268.991,1825.083 1362.319,1823.072 1371.172,1822.881C1381.821,1822.651 1378.576,1818.119 1380.303,1807.572Z" style="fill:rgb(35,29,14);"/>
            </g>
            <g transform="matrix(1,0,0,1,157.394166,65.12862)">
                <path d="M1908.285,1673.79C1902.271,1699.79 1878.125,1836.161 1726.03,1909.194C1643.68,1948.736 1561.222,1940.486 1558.471,1937.75C1556.873,1936.161 1556.2,1935.598 1556.32,1269.648C1556.338,1172.039 1554.477,1166.171 1565.009,1166.056C1634.025,1165.306 1875.478,1166.042 1902.475,1166.124C1915.994,1166.166 1913.171,1173.398 1913.171,1256.286C1913.171,1492.074 1913.905,1493.467 1908.14,1499.114C1887.411,1519.421 1844.99,1548.432 1849.99,1556.368C1854.688,1563.823 1912.363,1604.343 1913.166,1617.074C1914.171,1633.038 1908.936,1669.283 1908.285,1673.79ZM1672.826,1303.064C1672.851,1490.464 1671.951,1493.828 1678.218,1494.915C1680.116,1495.245 1680.128,1495.099 1785.532,1495.117C1804.55,1495.12 1796.964,1485.758 1796.954,1466.782C1796.853,1288.543 1798.406,1285.035 1791.978,1283.833C1791.067,1283.663 1679.519,1282.73 1676.052,1284.361C1670.57,1286.94 1673.371,1288.599 1672.826,1303.064ZM1672.842,1627.163C1672.797,1799.926 1672.623,1800.785 1674.678,1801.75C1682.593,1805.468 1726.612,1773.928 1744.093,1752.924C1751.391,1744.155 1793.385,1693.696 1796.926,1620.467C1797.493,1608.742 1789.519,1611.341 1708.684,1611.351C1706.067,1611.352 1677.446,1611.355 1675.986,1612.089C1674.254,1612.959 1674.867,1613.487 1672.842,1627.163Z" style="fill:rgb(35,29,14);"/>
            </g>
            <g transform="matrix(1,0,0,1,157.394166,65.12862)">
                <path d="M962.629,1480.148C966.21,1196.3 1184.196,988.915 1461.431,988.98C1967.26,989.098 1967.116,987.348 2082.914,988.838C2091.378,988.947 2090.476,996.23 2090.504,998.98C2093.186,1259.206 2090.898,1583.063 2090.539,1633.852C2089.219,1820.625 1975.728,2000.683 1792.183,2078.156C1685.539,2123.17 1681.232,2117.308 1200.814,2117.308C967.406,2117.308 964.243,2118.132 962.8,2111.876C962.216,2109.344 962.596,1530.686 962.629,1480.148ZM1438.056,1106.324C1243.554,1114.753 1135.451,1256.399 1102.611,1349.312C1075.187,1426.904 1078.685,1428.806 1078.685,1837.662C1078.685,1995.368 1077.908,1997.698 1083.141,1999.508C1085.945,2000.478 1085.975,2000.391 1571.692,2000.389C1634.49,2000.389 1654.736,2001.112 1721.746,1980.406C1738.874,1975.114 1879.964,1926.382 1945.184,1770.551C1978.824,1690.175 1974.44,1687.406 1974.44,1236.238C1974.44,1111.241 1975.558,1108.202 1969.105,1106.584C1965.287,1105.627 1461.12,1106.1 1438.056,1106.324Z" style="fill:rgb(35,29,14);"/>
            </g>
        </g>
    </g>
    <defs>
        <linearGradient id="_Linear1" x1="0" y1="0" x2="1" y2="0" gradientUnits="userSpaceOnUse" gradientTransform="matrix(-347.352642,-401.626493,401.626493,-347.352642,1938.468099,2089.543238)"><stop offset="0" style="stop-color:rgb(255,194,97);stop-opacity:1"/><stop offset="1" style="stop-color:rgb(255,210,105);stop-opacity:1"/></linearGradient>
    </defs>
</svg>
